<?xml version="1.0" encoding="utf-8"?>
<!DOCTYPE svg PUBLIC "-//W3C//DTD SVG 1.1//EN" "http://www.w3.org/Graphics/SVG/1.1/DTD/svg11.dtd">
<svg version="1.1" xmlns="http://www.w3.org/2000/svg" xmlns:xlink="http://www.w3.org/1999/xlink" x="0px" y="0px" viewBox="0 0 1000 1000" enable-background="new 0 0 1000 1000" xml:space="preserve">
<metadata> Svg Vector Icons : http://www.onlinewebfonts.com/icon </metadata>
<g><path d="M500,10c13.8,0,25.4,4.7,34.8,14.2l343,343c9.4,9.4,14.2,21.1,14.2,34.8c0,14-4.7,25.7-14,35c-9.3,9.3-21,14-35,14c-13.8,0-25.4-4.7-34.8-14.2L549,177.3V941c0,13.5-4.8,25.1-14.4,34.6c-9.6,9.6-21.1,14.4-34.6,14.4s-25.1-4.8-34.6-14.4c-9.6-9.6-14.4-21.1-14.4-34.6V177.3L191.8,436.8c-9.4,9.4-21.1,14.2-34.8,14.2c-14,0-25.7-4.7-35-14c-9.3-9.3-14-21-14-35c0-13.8,4.7-25.4,14.2-34.8l343-343C474.6,14.7,486.2,10,500,10L500,10z"/></g>
</svg>
